<svg width="217" height="60" viewBox="0 0 217 60" fill="none" xmlns="http://www.w3.org/2000/svg">
<path fill-rule="evenodd" clip-rule="evenodd" d="M7.60526 0.5H209.395C211.811 0.5 213.761 1.9566 215.018 3.82453C216.283 5.70486 217 8.18877 217 10.8333V49.1667C217 51.8112 216.283 54.2951 215.018 56.1755C213.761 58.0434 211.811 59.5 209.395 59.5H7.60527C5.18898 59.5 3.23866 58.0434 1.98223 56.1755C0.71746 54.2951 0 51.8112 0 49.1667V10.8333C0 8.18877 0.717459 5.70486 1.98223 3.82453C3.23866 1.9566 5.18897 0.5 7.60526 0.5ZM7.60526 2.5C4.50956 2.5 2 6.23096 2 10.8333V49.1667C2 53.769 4.50957 57.5 7.60527 57.5H209.395C212.49 57.5 215 53.769 215 49.1667V10.8333C215 6.23096 212.49 2.5 209.395 2.5H7.60526Z" fill="#6F9DE2"/>
<path fill-rule="evenodd" clip-rule="evenodd" d="M30.8688 41.5423C31.4884 41.244 32.0988 40.8965 32.7 40.5L33.1 42.5H39.3V14.5H32.3V21.3H24.1C22.1 21.3 20.5266 21.8733 19.38 23.02C18.26 24.14 17.7 25.7 17.7 27.7V36.9C17.7 38.7133 18.2466 40.1667 19.34 41.26C20.4333 42.3533 21.8866 42.9 23.7 42.9H25.5C26.4066 42.9 27.5133 42.7133 28.82 42.34C29.5137 42.1319 30.1967 41.866 30.8688 41.5423ZM30.3 19.3H24.1C21.7008 19.3 19.5711 20.0004 17.9657 21.6058C16.3783 23.1932 15.7 25.3163 15.7 27.7V36.9C15.7 39.145 16.3928 41.1413 17.9257 42.6742C19.4587 44.2071 21.455 44.9 23.7 44.9H25.5C26.6602 44.9 27.9636 44.6647 29.3694 44.2631L29.382 44.2594L29.3946 44.2557C30.0317 44.0645 30.6575 43.832 31.2722 43.5591L31.4603 44.5H41.3V39.6685C41.6562 40.7927 42.2543 41.8075 43.121 42.6742C44.654 44.2071 46.6503 44.9 48.8953 44.9C53.1646 44.9 57.9015 44.6282 63.1014 44.0893L64.8953 43.9035V36.7H65.6953V30.1614L71.1061 44.5H81.872L87.0889 30.6751C87.3918 32.1175 88.0517 33.4079 89.1179 34.4742C89.2743 34.6306 89.4356 34.7783 89.6014 34.9174C89.5476 34.9134 89.4936 34.9094 89.4395 34.9054L87.2921 34.7468V43.9126L89.096 44.0904C94.565 44.6292 99.6977 44.9 104.492 44.9C106.737 44.9 108.733 44.2071 110.266 42.6742C111.799 41.1413 112.492 39.145 112.492 36.9V35.3C112.492 33.055 111.799 31.0587 110.266 29.5258C109.869 29.1282 109.44 28.7871 108.984 28.5H110.095V28.7H112.495V36.9C112.495 39.145 113.188 41.1413 114.721 42.6742C116.254 44.2071 118.25 44.9 120.495 44.9C123.047 44.9 125.649 44.7628 128.3 44.4895L130.095 44.3044V43.3216C131.509 44.4036 133.231 44.9 135.131 44.9H136.531C137.691 44.9 138.995 44.6647 140.401 44.2631L140.413 44.2594L140.426 44.2557C141.063 44.0645 141.689 43.832 142.303 43.5591L142.492 44.5H152.331V39.4904C152.682 40.2132 153.151 40.8787 153.746 41.4742C153.799 41.5271 153.852 41.579 153.906 41.6299L152.72 41.5368V50.7035L154.514 50.8893C159.714 51.4282 164.451 51.7 168.72 51.7C170.965 51.7 172.962 51.0071 174.494 49.4742C176.027 47.9413 176.72 45.945 176.72 43.7V39.6387C177.075 40.7747 177.676 41.7999 178.551 42.6742C180.084 44.2071 182.08 44.9 184.325 44.9C188.594 44.9 193.331 44.6282 198.531 44.0893L200.325 43.9035V36.7H201.125V27.3C201.125 24.9113 200.43 22.789 198.819 21.2059C197.236 19.5951 195.114 18.9 192.725 18.9H184.725C182.326 18.9 180.196 19.6004 178.591 21.2058C177.686 22.11 177.077 23.1881 176.72 24.3891V19.3H159.92C157.521 19.3 155.391 20.0004 153.786 21.6058C152.966 22.4258 152.389 23.3887 152.022 24.4566C151.682 23.2025 151.055 22.0753 150.105 21.1258C148.572 19.5929 146.576 18.9 144.331 18.9C140.323 18.9 135.849 19.1725 130.914 19.7118L129.131 19.9067V28.8289L129.97 28.7765C129.758 28.9459 129.554 29.1289 129.357 29.3258C127.824 30.8587 127.131 32.855 127.131 35.1V35.3H123.495V28.7H128.495V19.3H123.495V14.5H113.601L112.801 19.3H94.8921C93.5063 19.3 92.2152 19.564 91.0694 20.1267L91.3814 19.3H79.6283L76.489 29.1274L73.3497 19.3H61.5966L61.8691 20.0221C60.5423 19.248 58.9855 18.9 57.2953 18.9H49.2953C46.8961 18.9 44.7664 19.6004 43.161 21.2058C42.2647 22.1022 41.6581 23.1693 41.3 24.3578V12.5H30.3V19.3ZM61.9753 22.62C60.8553 21.4733 59.2953 20.9 57.2953 20.9H49.2953C47.2953 20.9 45.7219 21.4733 44.5753 22.62C43.4553 23.74 42.8953 25.3 42.8953 27.3V36.9C42.8953 38.7133 43.4419 40.1667 44.5353 41.26C45.6286 42.3533 47.0819 42.9 48.8953 42.9C53.0819 42.9 57.7486 42.6333 62.8953 42.1V37.1C62.2061 37.1541 61.5395 37.2046 60.8953 37.2514C56.7781 37.5505 53.5781 37.7 51.2953 37.7C50.8953 37.7 50.5619 37.5667 50.2953 37.3C50.1231 37.1278 50.0065 36.9278 49.9455 36.7C49.912 36.575 49.8953 36.4417 49.8953 36.3V34.7H63.6953V27.3C63.6953 25.3 63.1219 23.74 61.9753 22.62ZM72.489 42.5H80.489L88.489 21.3H81.089L76.489 35.7L71.889 21.3H64.489L72.489 42.5ZM114.495 21.3H112.095V26.7H114.495V36.9C114.495 38.7133 115.042 40.1667 116.135 41.26C117.229 42.3533 118.682 42.9 120.495 42.9C122.975 42.9 125.509 42.7667 128.095 42.5V37.3H122.895C122.495 37.3 122.162 37.1667 121.895 36.9C121.629 36.6333 121.495 36.3 121.495 35.9V26.7H126.495V21.3H121.495V16.5H115.295L114.495 21.3ZM129.131 36.9C129.131 37.0353 129.134 37.1687 129.14 37.3C129.197 38.5178 129.515 39.5631 130.095 40.436C130.291 40.7303 130.516 41.0049 130.771 41.26C131.865 42.3533 133.318 42.9 135.131 42.9H136.531C137.438 42.9 138.545 42.7133 139.851 42.34C140.545 42.1319 141.228 41.866 141.9 41.5423C142.52 41.244 143.13 40.8965 143.731 40.5L144.131 42.5H150.331V26.9C150.331 25.0867 149.785 23.6333 148.691 22.54C147.598 21.4467 146.145 20.9 144.331 20.9C140.411 20.9 136.011 21.1667 131.131 21.7V26.7C131.715 26.6635 132.381 26.6187 133.131 26.5656C134.026 26.5023 135.039 26.4271 136.171 26.34C138.278 26.18 140.198 26.1 141.931 26.1C142.331 26.1 142.665 26.2333 142.931 26.5C143.103 26.6722 143.22 26.8722 143.281 27.1C143.314 27.225 143.331 27.3583 143.331 27.5V29.1H135.131C133.318 29.1 131.865 29.6467 130.771 30.74C129.678 31.8333 129.131 33.2867 129.131 35.1V36.9ZM197.405 22.62C196.285 21.4733 194.725 20.9 192.725 20.9H184.725C182.725 20.9 181.152 21.4733 180.005 22.62C178.885 23.74 178.325 25.3 178.325 27.3V36.9C178.325 38.7133 178.872 40.1667 179.965 41.26C181.058 42.3533 182.512 42.9 184.325 42.9C188.512 42.9 193.178 42.6333 198.325 42.1V37.1C197.636 37.1541 196.969 37.2046 196.325 37.2514C192.208 37.5505 189.008 37.7 186.725 37.7C186.325 37.7 185.992 37.5667 185.725 37.3C185.553 37.1278 185.436 36.9278 185.375 36.7C185.342 36.575 185.325 36.4417 185.325 36.3V34.7H199.125V27.3C199.125 25.3 198.552 23.74 197.405 22.62ZM165.72 41.2696C163.948 41.5565 162.348 41.7 160.92 41.7H159.52C157.707 41.7 156.254 41.1533 155.16 40.06C154.067 38.9667 153.52 37.5133 153.52 35.7V27.7C153.52 25.7 154.08 24.14 155.2 23.02C156.347 21.8733 157.92 21.3 159.92 21.3H174.72V43.7C174.72 45.5133 174.174 46.9667 173.08 48.06C171.987 49.1533 170.534 49.7 168.72 49.7C164.534 49.7 159.867 49.4333 154.72 48.9V43.7C155.409 43.7541 156.076 43.8046 156.72 43.8514C160.837 44.1505 164.037 44.3 166.32 44.3C166.72 44.3 167.054 44.1667 167.32 43.9C167.578 43.6424 167.711 43.3226 167.72 42.9406C167.72 42.9271 167.72 42.9136 167.72 42.9V40.9C167.031 41.0421 166.364 41.1653 165.72 41.2696ZM103.492 34.7V36.1C103.492 36.3202 103.452 36.5202 103.371 36.7C103.305 36.8468 103.212 36.9801 103.092 37.1C102.825 37.3667 102.492 37.5 102.092 37.5C99.367 37.5 95.767 37.3474 91.2921 37.0422C90.6438 36.998 89.9772 36.9506 89.2921 36.9V42.1C94.7055 42.6333 99.7721 42.9 104.492 42.9C106.305 42.9 107.759 42.3533 108.852 41.26C109.945 40.1667 110.492 38.7133 110.492 36.9V35.3C110.492 33.4867 109.945 32.0333 108.852 30.94C107.759 29.8467 106.305 29.3 104.492 29.3H97.2921C96.8921 29.3 96.5588 29.1667 96.2921 28.9C96.0255 28.6333 95.8921 28.3 95.8921 27.9C95.8921 27.5 96.0255 27.1667 96.2921 26.9C96.5588 26.6333 96.8921 26.5 97.2921 26.5H108.492V21.3H94.8921C93.0788 21.3 91.6255 21.8467 90.5321 22.94C89.4388 24.0333 88.8921 25.4867 88.8921 27.3V28.7C88.8921 30.5133 89.4388 31.9667 90.5321 33.06C91.6255 34.1533 93.0788 34.7 94.8921 34.7H103.492ZM30.3 34.7575V28.7H26.7V35.1H27.5C28.317 35.1 29.248 34.9916 30.3 34.7575ZM26.3 26.7C25.2333 26.7 24.7 27.2333 24.7 28.3V35.7C24.7 36.1 24.8333 36.4333 25.1 36.7C25.3666 36.9667 25.7 37.1 26.1 37.1H27.5C28.9133 37.1 30.5133 36.8333 32.3 36.3V26.7H26.3ZM49.8953 29.7V27.5C49.8953 26.4333 50.4286 25.9 51.4953 25.9H55.0953C56.1619 25.9 56.6953 26.4333 56.6953 27.5V29.7H49.8953ZM137.531 34.1C137.131 34.1 136.798 34.2333 136.531 34.5C136.265 34.7667 136.131 35.1 136.131 35.5V35.9C136.131 36.3 136.265 36.6333 136.531 36.9C136.798 37.1667 137.131 37.3 137.531 37.3H138.531C139.945 37.3 141.545 37.0333 143.331 36.5V34.1H137.531ZM165.72 34.1596V28.7H162.52V34.3H162.92C163.888 34.3 164.821 34.2528 165.72 34.1596ZM185.325 29.7V27.5C185.325 26.4333 185.858 25.9 186.925 25.9H190.525C191.592 25.9 192.125 26.4333 192.125 27.5V29.7H185.325ZM162.92 36.3C164.6 36.3 166.2 36.1667 167.72 35.9V26.7H162.12C161.054 26.7 160.52 27.2333 160.52 28.3V34.9C160.52 35.3 160.654 35.6333 160.92 35.9C161.187 36.1667 161.52 36.3 161.92 36.3H162.92Z" fill="#6F9DE2"/>
</svg>
