<svg width="56" height="86" viewBox="0 0 56 86" fill="none" xmlns="http://www.w3.org/2000/svg">
<path d="M45.2717 -6.10352e-05L35.5632 27.1112H30.1687L39.8488 0.0220821V-6.10352e-05H45.2717Z" fill="#9871F3"/>
<path d="M39.849 -6.10352e-05V0.0220821L30.1689 27.1112H24.8423L34.5223 0.0220821V-6.10352e-05H39.849Z" fill="#F0F0F0"/>
<path d="M34.5219 0V0.0221431L24.8419 27.1112H19.4001L29.1086 0H34.5219Z" fill="#6F9DE2"/>
<path d="M39.3552 27.5149C40.0682 29.1049 40.464 30.8163 40.5272 32.5529C36.7116 30.6034 32.3881 29.5039 27.8092 29.5039C22.9746 29.5039 18.4272 30.7295 14.4602 32.8841C14.4807 31.0339 14.8829 29.2058 15.6401 27.5148L15.9934 26.7278C16.3877 25.846 17.208 25.2293 18.1654 25.0953L19.208 24.9486C24.7066 24.1788 30.2888 24.1788 35.7889 24.9486L36.83 25.0953C37.7874 25.2294 38.6076 25.846 39.002 26.7278L39.3552 27.5149ZM36.5491 28.2893V27.2546C36.5491 26.9549 36.3062 26.7121 36.0065 26.7121H18.9887C18.689 26.7121 18.4461 26.955 18.4461 27.2546V28.2893C18.4461 28.5906 18.689 28.8335 18.9887 28.8335H36.0065C36.3062 28.8335 36.5491 28.5907 36.5491 28.2893Z" fill="#FDBC62"/>
<path d="M9.69043 0L19.3989 27.1112H24.7933L15.1133 0.0221431V0H9.69043Z" fill="#6F9DE2"/>
<path d="M15.1143 0V0.0221431L24.7943 27.1112H30.121L20.4409 0.0221431V0H15.1143Z" fill="#F0F0F0"/>
<path d="M20.4404 0V0.0221431L30.1206 27.1112H35.5624L25.8539 0H20.4404Z" fill="#9871F3"/>
<path d="M40.7172 32.553C49.7885 37.184 56 46.618 56 57.5032C56 72.9673 43.4633 85.504 27.9993 85.504C12.5351 85.504 0 72.9674 0 57.5032C0 46.8735 5.92291 37.6272 14.6503 32.8842C18.6173 30.7295 23.1647 29.504 27.9993 29.504C32.5782 29.504 36.9017 30.6033 40.7172 32.553Z" fill="#EDAC55"/>
<path d="M27.9992 83.2726C21.1161 83.2726 14.6453 80.592 9.77849 75.7248C4.91167 70.8577 2.23145 64.3864 2.23145 57.5032C2.23145 48.0474 7.39803 39.3655 15.7149 34.8456C19.4609 32.811 23.7088 31.7355 27.9992 31.7355C32.1221 31.7355 36.0597 32.6793 39.7028 34.5408C43.8692 36.6678 47.3839 39.8919 49.8674 43.8648C52.4195 47.9475 53.7685 52.6636 53.7685 57.5033C53.7685 64.3864 51.088 70.8576 46.2208 75.7249C41.3535 80.5921 34.8823 83.2726 27.9992 83.2726Z" fill="#FDBC62"/>
<path d="M23.425 33.0072C23.4227 33.0089 23.4228 33.0106 23.4207 33.0123C23.3002 33.1202 21.5926 34.6907 20.9227 36.057C20.2266 37.4722 18.0633 38.8908 18.0631 38.8913C18.0593 38.8916 18.1344 36.7247 19.0419 35.7306C20.1244 34.5312 23.3247 33.0514 23.425 33.0072Z" fill="#C49047"/>
<path d="M22.7288 34.1383C22.3423 35.0772 22.118 35.8866 21.5568 36.9252C21.2296 37.5311 19.6749 38.5745 18.7353 38.7998C18.3597 38.9397 18.063 38.8908 18.063 38.8908C18.0633 38.8903 20.2264 37.4718 20.9225 36.0565C21.5924 34.6902 23.2998 33.1198 23.4206 33.0119C23.3683 33.0814 22.9313 33.6487 22.7288 34.1383Z" fill="#FFDEAE"/>
<path d="M25.9624 37.4893C25.9596 37.4897 25.9581 37.4908 25.9554 37.4911C25.7862 37.5142 23.356 37.8641 21.807 38.6004C20.2018 39.3647 17.5474 39.3131 17.5474 39.3127C17.5452 39.3121 19.3214 37.615 20.7399 37.3066C22.4438 36.9325 25.8551 37.4723 25.9624 37.4893Z" fill="#C49047"/>
<path d="M24.5882 38.0317C23.5815 38.5841 22.7886 39.1174 21.5729 39.648C20.8638 39.9583 18.9351 39.945 18.0935 39.6089C17.7168 39.5146 17.5474 39.3126 17.5474 39.3126C17.5474 39.313 20.202 39.3646 21.807 38.6003C23.3558 37.864 25.7862 37.5141 25.9554 37.491C25.8644 37.5194 25.1136 37.7441 24.5882 38.0317Z" fill="#FFDEAE"/>
<path d="M18.1908 36.0875C18.1891 36.0895 18.1893 36.0911 18.1875 36.093C18.0869 36.2136 16.6769 37.9634 16.2722 39.3859C15.8498 40.859 13.9639 42.5203 13.9641 42.5208C13.9602 42.5213 13.6076 40.3877 14.3228 39.3009C15.172 37.9906 18.0979 36.143 18.1908 36.0875Z" fill="#C49047"/>
<path d="M17.7103 37.282C17.5043 38.2496 17.4365 39.0705 17.0764 40.1584C16.8659 40.793 15.5139 42.0096 14.6184 42.3478C14.2697 42.532 13.9634 42.521 13.9634 42.521C13.9631 42.5204 15.8493 40.8592 16.2715 39.3861C16.676 37.9637 18.0863 36.2138 18.1868 36.0932C18.1477 36.1678 17.8185 36.7774 17.7103 37.282Z" fill="#FFDEAE"/>
<path d="M21.5986 40.1661C21.5961 40.1667 21.5946 40.1681 21.592 40.1687C21.4272 40.2122 19.0618 40.8552 17.6551 41.77C16.1984 42.7186 13.5332 42.9992 13.5327 42.9989C13.53 42.9985 14.9734 41.1126 16.3347 40.6336C17.9688 40.0542 21.4889 40.1622 21.5986 40.1661Z" fill="#C49047"/>
<path d="M20.3277 40.8679C19.4271 41.5342 18.7372 42.1556 17.6251 42.8272C16.9769 43.2193 15.046 43.4459 14.1376 43.2213C13.7424 43.1759 13.5327 42.9989 13.5327 42.9989C13.5333 42.9992 16.1985 42.7186 17.6551 41.77C19.0617 40.8553 21.4272 40.2122 21.592 40.1688C21.5063 40.2079 20.7982 40.5206 20.3277 40.8679Z" fill="#FFDEAE"/>
<path d="M13.3037 39.9897C13.3024 39.992 13.3031 39.9935 13.302 39.9957C13.2376 40.1306 12.3673 42.0801 12.3995 43.5216C12.4273 45.0148 11.0746 46.9786 11.0758 46.9792C11.0724 46.98 10.0704 45.0046 10.4457 43.8244C10.8833 42.4026 13.227 40.0607 13.3037 39.9897Z" fill="#C49047"/>
<path d="M13.1873 41.2257C13.275 42.1915 13.4554 42.9904 13.4288 44.1033C13.4123 44.7525 12.4476 46.184 11.6683 46.6843C11.381 46.9294 11.0754 46.9792 11.0754 46.9792C11.0746 46.9786 12.4271 45.0148 12.3993 43.5216C12.367 42.0801 13.2374 40.1306 13.3017 39.9957C13.2856 40.0746 13.1423 40.7219 13.1873 41.2257Z" fill="#FFDEAE"/>
<path d="M17.896 43.2278C17.8935 43.2289 17.8926 43.2305 17.8902 43.2317C17.7403 43.3051 15.5958 44.3825 14.4853 45.5352C13.3354 46.7297 10.7962 47.5224 10.7962 47.5224C10.7921 47.5224 11.6377 45.4301 12.838 44.7043C14.2765 43.8276 17.7869 43.2447 17.896 43.2278Z" fill="#C49047"/>
<path d="M16.8503 44.1485C16.161 44.9632 15.6676 45.6943 14.7749 46.5559C14.2547 47.0589 12.4229 47.654 11.4592 47.6171C11.056 47.651 10.795 47.5226 10.7952 47.5225C10.7959 47.5225 13.335 46.7299 14.4849 45.5354C15.5953 44.3826 17.7399 43.3053 17.8898 43.2318C17.8168 43.2859 17.2108 43.7237 16.8503 44.1485Z" fill="#FFDEAE"/>
<path d="M9.77186 44.3561C9.77101 44.3584 9.77209 44.3598 9.77116 44.3621C9.72765 44.5013 9.16287 46.5098 9.42478 47.9317C9.68925 49.405 8.64972 51.4764 8.65104 51.4768C8.64802 51.4778 7.32862 49.6192 7.51543 48.4173C7.72571 46.9701 9.70566 44.4334 9.77186 44.3561Z" fill="#C49047"/>
<path d="M9.85027 45.588C10.0912 46.5337 10.3983 47.3061 10.5479 48.4091C10.6343 49.0524 9.89572 50.5601 9.19638 51.1292C8.94801 51.3989 8.65064 51.4772 8.65064 51.4772C8.64901 51.4766 9.68862 49.4052 9.4243 47.9319C9.16239 46.5099 9.7274 44.5016 9.77068 44.3624C9.76681 44.4416 9.72539 45.0946 9.85027 45.588Z" fill="#FFDEAE"/>
<path d="M14.8837 47.1207C14.8813 47.1221 14.881 47.1238 14.8786 47.1251C14.7397 47.2118 12.7606 48.4797 11.832 49.7252C10.8699 51.0157 8.4579 52.0408 8.45705 52.0411C8.45334 52.0412 8.96392 49.8911 10.0512 49.0594C11.3522 48.0556 14.7771 47.1477 14.8837 47.1207Z" fill="#C49047"/>
<path d="M13.9809 48.13C13.4184 49.0011 13.04 49.7707 12.2833 50.7078C11.8424 51.2547 10.1055 52.0167 9.13608 52.0718C8.73829 52.1437 8.45679 52.0414 8.45679 52.0414C8.45756 52.0411 10.8696 51.016 11.8317 49.7255C12.7601 48.48 14.7394 47.2121 14.8783 47.1254C14.8136 47.1857 14.2749 47.6759 13.9809 48.13Z" fill="#FFDEAE"/>
<path d="M7.09172 49.1217C7.0918 49.124 7.09281 49.1253 7.09257 49.1277C7.08421 49.2697 7.0311 51.3128 7.65093 52.6569C8.2847 54.0504 7.78448 56.2355 7.78665 56.2359C7.78471 56.2368 6.00605 54.6322 5.88419 53.4323C5.72169 51.9887 7.04395 49.207 7.09172 49.1217Z" fill="#C49047"/>
<path d="M7.48018 50.3075C7.95771 51.1896 8.45669 51.8932 8.8832 52.9447C9.13063 53.558 8.78193 55.1448 8.2365 55.8104C8.05998 56.1127 7.78615 56.236 7.78615 56.236C7.78383 56.2357 8.28427 54.0504 7.65043 52.6569C7.03052 51.3127 7.08379 49.2698 7.09207 49.1277C7.10794 49.2056 7.23174 49.8471 7.48018 50.3075Z" fill="#FFDEAE"/>
<path d="M12.853 51.0072C12.851 51.0088 12.851 51.0105 12.8489 51.0122C12.7328 51.1184 11.0893 52.6647 10.4858 54.0258C9.85935 55.4358 7.7405 56.8161 7.74003 56.8165C7.73616 56.8171 7.69164 54.6385 8.55721 53.6566C9.58915 52.4723 12.7539 51.0497 12.853 51.0072Z" fill="#C49047"/>
<path d="M12.2105 52.1327C11.8715 53.0704 11.69 53.8807 11.1788 54.9141C10.8805 55.5169 9.35976 56.5332 8.41755 56.7397C8.04384 56.8724 7.73927 56.8168 7.7395 56.8168C7.73973 56.8164 9.85874 55.4361 10.4853 54.0261C11.0886 52.6648 12.7322 51.1187 12.8484 51.0125C12.7994 51.0814 12.3881 51.6437 12.2105 52.1327Z" fill="#FFDEAE"/>
<path d="M5.56956 54.0342C5.57003 54.0366 5.5715 54.0376 5.57181 54.0399C5.59743 54.1799 6.04059 56.1838 6.97978 57.4072C7.94382 58.6762 7.9816 60.8926 7.98462 60.8926C7.98346 60.8935 5.83713 59.5849 5.42277 58.4294C4.90808 57.0406 5.54177 54.1245 5.56956 54.0342Z" fill="#C49047"/>
<path d="M6.24251 55.1344C6.92884 55.9255 7.5928 56.5391 8.26837 57.5052C8.66105 58.0688 8.70108 59.6752 8.32559 60.4085C8.22494 60.731 7.9854 60.8925 7.9854 60.8925C7.98238 60.8924 7.94445 58.676 6.98048 57.407C6.04137 56.1837 5.59814 54.1796 5.57251 54.0397C5.60719 54.1133 5.88506 54.7215 6.24251 55.1344Z" fill="#FFDEAE"/>
<path d="M11.725 55.0209C11.7234 55.0228 11.7237 55.0244 11.7221 55.0264C11.6324 55.1474 10.3762 56.9045 10.1096 58.3275C9.83026 59.8017 8.07893 61.4689 8.07908 61.4694C8.07529 61.4701 7.49959 59.3412 8.11624 58.2515C8.84686 56.9382 11.6362 55.0768 11.725 55.0209Z" fill="#C49047"/>
<path d="M11.3583 56.2179C11.2476 57.1864 11.2628 58.0071 11.0073 59.0957C10.8582 59.7307 9.60534 60.9518 8.7277 61.2937C8.39162 61.4792 8.07837 61.4697 8.07837 61.4697C8.07814 61.4692 9.82947 59.802 10.109 58.3278C10.3756 56.9046 11.6316 55.1478 11.7215 55.0267C11.6893 55.1014 11.4169 55.7127 11.3583 56.2179Z" fill="#FFDEAE"/>
<path d="M5.49902 59.7559C5.50034 59.7581 5.50196 59.7589 5.50313 59.7609C5.57443 59.8902 6.67202 61.727 7.98818 62.7152C9.34296 63.7415 10.1165 65.8775 10.12 65.8771C10.1196 65.8776 7.61098 65.0496 6.82245 64.0205C5.85849 62.7853 5.50088 59.8481 5.49902 59.7559Z" fill="#C49047"/>
<path d="M6.51754 60.6765C7.44628 61.2969 8.29357 61.7524 9.2676 62.5467C9.83416 63.0102 10.4049 64.5543 10.287 65.34C10.2973 65.6724 10.1202 65.8771 10.1202 65.8771C10.1165 65.8775 9.34278 63.7416 7.98822 62.7153C6.67207 61.7269 5.57448 59.89 5.50317 59.761C5.56155 59.8245 6.03358 60.3524 6.51754 60.6765Z" fill="#FFDEAE"/>
<path d="M11.8029 59.4438C11.8021 59.4461 11.8027 59.4475 11.8019 59.4498C11.7532 59.585 11.1105 61.5355 11.3231 62.9649C11.5381 64.4462 10.4039 66.4151 10.4052 66.4157C10.4019 66.4167 9.13504 64.475 9.37016 63.2976C9.63905 61.88 11.7337 59.5158 11.8029 59.4438Z" fill="#C49047"/>
<path d="M11.8389 60.673C12.0489 61.6304 12.3327 62.4204 12.4443 63.5249C12.5085 64.1692 11.7037 65.6046 10.972 66.1134C10.7098 66.3611 10.4048 66.4154 10.4048 66.4154C10.4035 66.415 11.5375 64.4459 11.3228 62.9647C11.1102 61.5351 11.7528 59.5847 11.8016 59.4496C11.795 59.5282 11.7298 60.1735 11.8389 60.673Z" fill="#FFDEAE"/>
<path d="M6.86426 64.6157C6.86565 64.6178 6.86728 64.6186 6.86875 64.6206C6.95027 64.7466 8.19349 66.5375 9.58939 67.4765C11.0268 68.4518 11.9673 70.5527 11.9705 70.5523C11.9704 70.5529 9.39251 69.8139 8.52199 68.8164C7.45931 67.6196 6.87324 64.7074 6.86426 64.6157Z" fill="#C49047"/>
<path d="M7.95647 65.4971C8.93592 66.0829 9.82052 66.507 10.8583 67.2646C11.4622 67.7067 12.1531 69.2251 12.0958 70.0116C12.1316 70.3423 11.97 70.5523 11.97 70.5523C11.9665 70.5527 11.0264 68.4518 9.58881 67.4765C8.19283 66.5375 6.94953 64.7467 6.86816 64.6206C6.93142 64.6818 7.44596 65.191 7.95647 65.4971Z" fill="#FFDEAE"/>
<path d="M13.1634 64.0876C13.1629 64.0898 13.1636 64.0912 13.163 64.0935C13.1245 64.2297 12.6292 66.1943 12.9524 67.6106C13.2811 69.0787 12.2974 71.0783 12.2986 71.0788C12.2954 71.0798 10.8757 69.1894 11.0204 68.0089C11.1801 66.5878 13.0995 64.1615 13.1634 64.0876Z" fill="#C49047"/>
<path d="M13.2945 65.3106C13.5786 66.2569 13.9235 67.034 14.1201 68.1301C14.2339 68.7696 13.5378 70.2269 12.8442 70.7585C12.6004 71.0142 12.2991 71.0787 12.2991 71.0787C12.2979 71.0782 13.2817 69.0786 12.953 67.6105C12.6297 66.1942 13.1252 64.2296 13.1636 64.0934C13.1627 64.172 13.1472 64.8168 13.2945 65.3106Z" fill="#FFDEAE"/>
<path d="M9.61377 69.946C9.61578 69.9478 9.61787 69.948 9.61989 69.9498C9.74415 70.0526 11.5906 71.5012 13.2618 72.1003C14.9863 72.7241 16.6498 74.5539 16.6534 74.553C16.6539 74.5531 13.942 74.4028 12.7455 73.6317C11.2933 72.7085 9.65542 70.0316 9.61377 69.946Z" fill="#C49047"/>
<path d="M10.9795 70.5519C12.1276 70.8988 13.1248 71.1121 14.3887 71.615C15.1246 71.9086 16.337 73.2265 16.5727 74.0016C16.7289 74.3142 16.6531 74.5533 16.6531 74.5533C16.6497 74.5542 14.986 72.7243 13.2615 72.1005C11.59 71.5013 9.74404 70.0527 9.61963 69.95C9.70255 69.9948 10.3808 70.3704 10.9795 70.5519Z" fill="#FFDEAE"/>
<path d="M14.0422 74.7382C14.0447 74.7396 14.0464 74.7395 14.0491 74.7409C14.1962 74.8247 16.3556 75.9973 18.1326 76.3596C19.968 76.7378 22.0343 78.321 22.0373 78.3199C22.0373 78.3199 19.3598 78.5408 18.0037 77.9435C16.3617 77.2298 14.1042 74.8161 14.0422 74.7382Z" fill="#C49047"/>
<path d="M15.5247 75.1459C16.7313 75.3292 17.7574 75.4019 19.1134 75.7249C19.9033 75.9136 21.4057 77.0502 21.8237 77.7851C22.0519 78.0729 22.0364 78.3199 22.0364 78.3199C22.0335 78.3209 19.967 76.7378 18.1317 76.3596C16.3548 75.9972 14.1951 74.8246 14.0481 74.7408C14.1403 74.7737 14.8952 75.0497 15.5247 75.1459Z" fill="#FFDEAE"/>
<path d="M15.4199 68.0367C15.42 68.0391 15.4214 68.0402 15.4216 68.0425C15.4335 68.1825 15.676 70.1887 16.5016 71.4888C17.3488 72.837 17.1544 74.9921 17.1569 74.9921C17.1553 74.9932 15.1126 73.4724 14.8147 72.2994C14.4403 70.8895 15.3838 68.1221 15.4199 68.0367Z" fill="#C49047"/>
<path d="M15.9886 69.189C16.6028 70.041 17.2129 70.7168 17.7993 71.7354C18.1398 72.3297 18.0139 73.8949 17.5548 74.5622C17.4187 74.8636 17.1577 74.9921 17.1577 74.9921C17.1553 74.9919 17.3497 72.8369 16.5024 71.4886C15.6768 70.1886 15.4344 68.1823 15.4224 68.0424C15.4497 68.1184 15.6688 68.7445 15.9886 69.189Z" fill="#FFDEAE"/>
<path d="M18.9972 72.4816C18.9977 72.4835 18.9997 72.4843 18.9999 72.4864C19.041 72.6054 19.6898 74.3068 20.6784 75.3287C21.6959 76.3893 21.9992 78.2811 22.0016 78.2809C22.0007 78.2815 19.9299 77.2165 19.4174 76.24C18.7885 75.067 18.9846 72.5598 18.9972 72.4816Z" fill="#C49047"/>
<path d="M19.7364 73.4054C20.4479 74.0643 21.1168 74.5724 21.8388 75.3811C22.2588 75.853 22.4918 77.2244 22.2463 77.8596C22.1959 78.1375 22.0018 78.281 22.0018 78.281C21.9996 78.2812 21.6963 76.3892 20.6787 75.3288C19.6903 74.3069 19.0414 72.6056 19.0002 72.4865C19.0405 72.5485 19.3657 73.0614 19.7364 73.4054Z" fill="#FFDEAE"/>
<path d="M31.5613 33.0068C31.5635 33.0085 31.5634 33.0102 31.5655 33.0119C31.686 33.1199 33.3936 34.6904 34.0636 36.0566C34.7596 37.4718 36.9229 38.8904 36.9229 38.8904C36.9269 38.8912 36.8518 36.7243 35.9443 35.7303C34.8618 34.5309 31.6615 33.051 31.5613 33.0068Z" fill="#C49047"/>
<path d="M32.2569 34.1386C32.6434 35.0775 32.8678 35.8869 33.4289 36.9255C33.7561 37.5314 35.3109 38.5748 36.2504 38.8001C36.626 38.94 36.9228 38.8911 36.9228 38.8911C36.9228 38.8911 34.7593 37.4721 34.0632 36.0569C33.3933 34.6905 31.6859 33.1201 31.5652 33.0122C31.6174 33.0817 32.0545 33.649 32.2569 34.1386Z" fill="#FFDEAE"/>
<path d="M29.0232 37.4892C29.026 37.4896 29.0275 37.4908 29.0302 37.4911C29.1993 37.5141 31.6295 37.8641 33.1786 38.6003C34.7838 39.3646 37.4382 39.3131 37.4382 39.3126C37.4404 39.3121 35.6642 37.6149 34.2456 37.3065C32.5418 36.9325 29.1304 37.4723 29.0232 37.4892Z" fill="#C49047"/>
<path d="M30.3962 38.0316C31.4029 38.5841 32.1959 39.1173 33.4115 39.648C34.1206 39.9582 36.0494 39.9449 36.891 39.6088C37.2675 39.5146 37.4371 39.3125 37.4371 39.3125C37.4371 39.3129 34.7825 39.3645 33.1775 38.6003C31.6286 37.864 29.1982 37.514 29.0291 37.491C29.1201 37.5194 29.8708 37.7441 30.3962 38.0316Z" fill="#FFDEAE"/>
<path d="M36.793 36.0881C36.7947 36.0901 36.7945 36.0917 36.7963 36.0936C36.8969 36.2142 38.3069 37.964 38.7116 39.3865C39.134 40.8597 41.0199 42.5209 41.0197 42.5214C41.0236 42.5219 41.3761 40.3883 40.661 39.3015C39.8118 37.9912 36.8859 36.1436 36.793 36.0881Z" fill="#C49047"/>
<path d="M37.2734 37.2823C37.4794 38.2499 37.5472 39.0708 37.9073 40.1587C38.1177 40.7933 39.4697 42.0099 40.3653 42.3481C40.714 42.5323 41.0203 42.5213 41.0203 42.5213C41.0206 42.5207 39.1344 40.8595 38.7122 39.3864C38.3077 37.964 36.8974 36.2141 36.7969 36.0935C36.8359 36.1681 37.1651 36.7777 37.2734 37.2823Z" fill="#FFDEAE"/>
<path d="M33.3887 40.1665C33.3911 40.1672 33.3927 40.1686 33.3953 40.1692C33.5601 40.2126 35.9255 40.8557 37.3322 41.7704C38.7889 42.719 41.4541 42.9996 41.4546 42.9994C41.4572 42.9989 40.0139 41.113 38.6527 40.634C37.0185 40.0546 33.4985 40.1626 33.3887 40.1665Z" fill="#C49047"/>
<path d="M34.6597 40.8682C35.5604 41.5345 36.2502 42.1559 37.3624 42.8275C38.0105 43.2196 39.9415 43.4462 40.8499 43.2216C41.245 43.1762 41.4548 42.9992 41.4548 42.9992C41.4542 42.9995 38.789 42.7189 37.3323 41.7703C35.9258 40.8556 33.5603 40.2125 33.3955 40.1691C33.4812 40.2082 34.1893 40.5209 34.6597 40.8682Z" fill="#FFDEAE"/>
<path d="M41.6824 39.9893C41.6836 39.9916 41.6829 39.993 41.684 39.9953C41.7483 40.1301 42.6187 42.0797 42.5865 43.5212C42.5588 45.0144 43.9113 46.9782 43.9102 46.9788C43.9136 46.9796 44.9155 45.0042 44.5403 43.824C44.1026 42.4021 41.7589 40.0603 41.6824 39.9893Z" fill="#C49047"/>
<path d="M41.7996 41.2253C41.7118 42.191 41.5314 42.9899 41.5581 44.1029C41.5745 44.752 42.5393 46.1835 43.3185 46.6839C43.6059 46.929 43.9114 46.9788 43.9114 46.9788C43.9123 46.9782 42.5597 45.0144 42.5875 43.5212C42.6199 42.0797 41.7495 40.1302 41.685 39.9953C41.7014 40.0742 41.8446 40.7215 41.7996 41.2253Z" fill="#FFDEAE"/>
<path d="M37.0908 43.2271C37.0932 43.2283 37.0943 43.2298 37.0966 43.231C37.2464 43.3045 39.3911 44.3818 40.5014 45.5346C41.6514 46.7291 44.1906 47.5217 44.1911 47.5217C44.1947 47.5217 43.3491 45.4294 42.1488 44.7036C40.7102 43.827 37.1999 43.2441 37.0908 43.2271Z" fill="#C49047"/>
<path d="M38.1371 44.1477C38.8265 44.9625 39.3198 45.6935 40.2124 46.5551C40.7326 47.0581 42.5646 47.6532 43.5281 47.6163C43.9313 47.6502 44.1923 47.5218 44.1922 47.5217C44.1916 47.5217 41.6525 46.7291 40.5025 45.5346C39.3921 44.3818 37.2475 43.3045 37.0977 43.231C37.1707 43.2851 37.7766 43.7229 38.1371 44.1477Z" fill="#FFDEAE"/>
<path d="M45.2163 44.3562C45.2172 44.3585 45.2161 44.3599 45.2169 44.3622C45.2604 44.5014 45.8253 46.51 45.5633 47.9318C45.2988 49.4051 46.3384 51.4765 46.3371 51.477C46.3401 51.4779 47.6595 49.6193 47.4727 48.4174C47.2625 46.9702 45.2825 44.4335 45.2163 44.3562Z" fill="#C49047"/>
<path d="M45.1371 45.5884C44.8962 46.5341 44.5892 47.3065 44.4395 48.4094C44.3531 49.0528 45.0917 50.5604 45.791 51.1295C46.0394 51.3993 46.3368 51.4775 46.3368 51.4775C46.3384 51.477 45.2988 49.4055 45.5631 47.9323C45.8251 46.5103 45.26 44.5019 45.2168 44.3627C45.2206 44.442 45.2621 45.095 45.1371 45.5884Z" fill="#FFDEAE"/>
<path d="M40.1013 47.1211C40.1037 47.1225 40.104 47.1242 40.1065 47.1255C40.2453 47.2121 42.2245 48.4801 43.1531 49.7256C44.1152 51.016 46.5272 52.0412 46.528 52.0415C46.5317 52.0416 46.0211 49.8914 44.9338 49.0598C43.6329 48.0559 40.2078 47.148 40.1013 47.1211Z" fill="#C49047"/>
<path d="M41.0035 48.1301C41.566 49.0012 41.9444 49.7708 42.7011 50.7079C43.142 51.2548 44.8789 52.0168 45.8484 52.0719C46.2462 52.1437 46.5278 52.0414 46.5278 52.0414C46.5269 52.0412 44.1148 51.016 43.1528 49.7256C42.2244 48.48 40.2451 47.2122 40.1062 47.1255C40.1707 47.1857 40.7095 47.676 41.0035 48.1301Z" fill="#FFDEAE"/>
<path d="M47.8918 49.1216C47.8918 49.1239 47.8908 49.1251 47.891 49.1275C47.8993 49.2696 47.9525 51.3127 47.3326 52.6568C46.6989 54.0503 47.1991 56.2354 47.1969 56.2358C47.1989 56.2367 48.9775 54.6321 49.0994 53.4321C49.2619 51.9886 47.9395 49.2069 47.8918 49.1216Z" fill="#C49047"/>
<path d="M47.5034 50.3074C47.0258 51.1895 46.5269 51.8931 46.1004 52.9446C45.8528 53.5579 46.2015 55.1447 46.7471 55.8103C46.9235 56.1126 47.1974 56.2359 47.1974 56.2359C47.1997 56.2356 46.6993 54.0503 47.333 52.6568C47.953 51.3126 47.8998 49.2697 47.8915 49.1276C47.8756 49.2054 47.7518 49.8469 47.5034 50.3074Z" fill="#FFDEAE"/>
<path d="M42.1306 51.0071C42.1326 51.0088 42.1326 51.0105 42.1346 51.0122C42.2508 51.1183 43.8942 52.6646 44.4978 54.0258C45.1242 55.4358 47.2431 56.816 47.2436 56.8165C47.2474 56.817 47.2919 54.6385 46.4264 53.6565C45.3944 52.4722 42.2297 51.0496 42.1306 51.0071Z" fill="#C49047"/>
<path d="M42.7724 52.1322C43.1113 53.07 43.2928 53.8802 43.8041 54.9136C44.1024 55.5165 45.6232 56.5328 46.5653 56.7392C46.9391 56.8719 47.2436 56.8163 47.2436 56.8163C47.2431 56.8159 45.1241 55.4357 44.4976 54.0256C43.8943 52.6644 42.2507 51.1182 42.1345 51.012C42.1836 51.0809 42.5949 51.6433 42.7724 52.1322Z" fill="#FFDEAE"/>
<path d="M49.4156 54.0342C49.4151 54.0366 49.4136 54.0376 49.4133 54.0399C49.3877 54.1799 48.9445 56.1838 48.0053 57.4072C47.0413 58.6762 47.0035 60.8926 47.0005 60.8926C47.0016 60.8935 49.1479 59.5849 49.5623 58.4294C50.077 57.0406 49.4433 54.1245 49.4156 54.0342Z" fill="#C49047"/>
<path d="M48.7433 55.1346C48.057 55.9256 47.3931 56.5393 46.7175 57.5053C46.3248 58.069 46.2848 59.6754 46.6603 60.4087C46.7609 60.7312 47.0004 60.8926 47.0004 60.8926C47.0035 60.8926 47.0413 58.6762 48.0054 57.4072C48.9445 56.1838 49.3877 54.1798 49.4133 54.0399C49.3787 54.1135 49.1008 54.7217 48.7433 55.1346Z" fill="#FFDEAE"/>
<path d="M43.2593 55.0206C43.2608 55.0225 43.2605 55.0241 43.2621 55.0261C43.3519 55.1471 44.6081 56.9042 44.8746 58.3272C45.154 59.8014 46.9053 61.4685 46.9052 61.4691C46.9089 61.4698 47.4847 59.3409 46.868 58.2512C46.1373 56.9379 43.348 55.0765 43.2593 55.0206Z" fill="#C49047"/>
<path d="M43.6251 56.2169C43.7359 57.1855 43.7206 58.0062 43.9761 59.0948C44.1252 59.7297 45.3781 60.9509 46.2557 61.2928C46.5918 61.4783 46.905 61.4688 46.905 61.4688C46.9052 61.4683 45.1539 59.801 44.8744 58.3269C44.6078 56.9037 43.3518 55.1469 43.262 55.0258C43.2941 55.1005 43.5665 55.7118 43.6251 56.2169Z" fill="#FFDEAE"/>
<path d="M49.4852 59.756C49.4839 59.7582 49.4822 59.759 49.4811 59.7611C49.4099 59.8903 48.3122 61.7271 46.996 62.7154C45.6412 63.7416 44.8677 65.8776 44.8643 65.8772C44.8646 65.8777 47.3732 65.0498 48.1617 64.0206C49.1257 62.7854 49.4833 59.8482 49.4852 59.756Z" fill="#C49047"/>
<path d="M48.4668 60.6765C47.538 61.2969 46.6907 61.7524 45.7167 62.5467C45.1501 63.0102 44.5794 64.5543 44.6972 65.34C44.687 65.6724 44.8641 65.8771 44.8642 65.8771C44.8677 65.8775 45.6415 63.7416 46.996 62.7153C48.3122 61.7269 49.4097 59.89 49.4811 59.761C49.4227 59.8245 48.9508 60.3524 48.4668 60.6765Z" fill="#FFDEAE"/>
<path d="M43.1831 59.4436C43.1839 59.4458 43.1833 59.4472 43.184 59.4496C43.2327 59.5847 43.8754 61.5353 43.6628 62.9647C43.4479 64.446 44.582 66.4149 44.5807 66.4154C44.584 66.4164 45.8509 64.4748 45.6157 63.2974C45.3469 61.8797 43.2522 59.5155 43.1831 59.4436Z" fill="#C49047"/>
<path d="M43.1461 60.673C42.9361 61.6304 42.6524 62.4204 42.5407 63.5249C42.4765 64.1692 43.2814 65.6046 44.0129 66.1134C44.2752 66.3611 44.5802 66.4154 44.5802 66.4154C44.5815 66.415 43.4475 64.4459 43.6623 62.9647C43.8749 61.5351 43.2322 59.5847 43.1835 59.4496C43.19 59.5282 43.2552 60.1735 43.1461 60.673Z" fill="#FFDEAE"/>
<path d="M48.1207 64.6157C48.1193 64.6178 48.1177 64.6185 48.1162 64.6205C48.0347 64.7466 46.7914 66.5375 45.3956 67.4764C43.9582 68.4518 43.0177 70.5527 43.0144 70.5522C43.0146 70.5528 45.5924 69.8138 46.463 68.8164C47.5257 67.6196 48.1117 64.7073 48.1207 64.6157Z" fill="#C49047"/>
<path d="M47.0281 65.497C46.0487 66.0828 45.164 66.507 44.1261 67.2645C43.5223 67.7066 42.8314 69.225 42.8887 70.0115C42.8529 70.3422 43.0146 70.5522 43.0146 70.5522C43.0181 70.5526 43.9582 68.4518 45.3958 67.4764C46.7917 66.5374 48.035 64.7467 48.1164 64.6205C48.0532 64.6818 47.5387 65.191 47.0281 65.497Z" fill="#FFDEAE"/>
<path d="M41.821 64.0875C41.8216 64.0897 41.8209 64.0912 41.8214 64.0935C41.86 64.2296 42.3553 66.1942 42.0321 67.6106C41.7034 69.0786 42.6871 71.0782 42.6858 71.0788C42.6891 71.0798 44.1087 69.1893 43.964 68.0088C43.8044 66.5878 41.885 64.1615 41.821 64.0875Z" fill="#C49047"/>
<path d="M41.6913 65.3106C41.4073 66.2569 41.0624 67.034 40.8658 68.1301C40.7519 68.7697 41.4481 70.2269 42.1417 70.7586C42.3855 71.0143 42.6868 71.0788 42.6868 71.0788C42.6879 71.0782 41.7041 69.0787 42.0329 67.6106C42.3562 66.1942 41.8607 64.2297 41.8222 64.0935C41.8231 64.1721 41.8386 64.8168 41.6913 65.3106Z" fill="#FFDEAE"/>
<path d="M45.3724 69.9464C45.3705 69.9481 45.3684 69.9483 45.3664 69.9501C45.2421 70.0529 43.3956 71.5015 41.7244 72.1007C39.9999 72.7244 38.3364 74.5542 38.3328 74.5533C38.3328 74.5533 41.0441 74.4031 42.2407 73.632C43.6928 72.7088 45.3307 70.0319 45.3724 69.9464Z" fill="#C49047"/>
<path d="M44.006 70.5522C42.8578 70.8991 41.8607 71.1124 40.5968 71.6153C39.8609 71.9089 38.6485 73.2268 38.4127 74.0019C38.2566 74.3145 38.3323 74.5536 38.3323 74.5536C38.3357 74.5545 39.9993 72.7246 41.7239 72.1008C43.3954 71.5016 45.2414 70.053 45.3659 69.9503C45.283 69.9951 44.6047 70.3707 44.006 70.5522Z" fill="#FFDEAE"/>
<path d="M40.9441 74.738C40.9415 74.7395 40.9398 74.7394 40.9372 74.7407C40.7901 74.8246 38.6306 75.9972 36.8537 76.3595C35.0183 76.7377 32.952 78.3208 32.949 78.3198C32.949 78.3198 35.6265 78.5406 36.9825 77.9434C38.6246 77.2297 40.8821 74.816 40.9441 74.738Z" fill="#C49047"/>
<path d="M39.4609 75.1457C38.2542 75.329 37.2282 75.4017 35.8721 75.7248C35.0821 75.9134 33.5799 77.05 33.1619 77.7849C32.9336 78.0727 32.9492 78.3197 32.9492 78.3197C32.9521 78.3207 35.0186 76.7376 36.854 76.3594C38.6309 75.997 40.7904 74.8244 40.9375 74.7407C40.8453 74.7735 40.0902 75.0496 39.4609 75.1457Z" fill="#FFDEAE"/>
<path d="M39.5659 68.0363C39.5659 68.0386 39.5644 68.0397 39.5642 68.0421C39.5523 68.182 39.3097 70.1882 38.4841 71.4883C37.6369 72.8366 37.8313 74.9916 37.8288 74.9917C37.8305 74.9927 39.8732 73.4719 40.171 72.2989C40.5455 70.889 39.6022 68.1216 39.5659 68.0363Z" fill="#C49047"/>
<path d="M38.9978 69.1888C38.3837 70.0407 37.7735 70.7165 37.1872 71.7351C36.8466 72.3295 36.9726 73.8946 37.4317 74.562C37.5678 74.8633 37.8288 74.9918 37.8288 74.9918C37.8312 74.9917 37.6368 72.8367 38.484 71.4884C39.3097 70.1883 39.5521 68.1821 39.5641 68.0422C39.5367 68.1181 39.3176 68.7442 38.9978 69.1888Z" fill="#FFDEAE"/>
<path d="M35.9908 72.4813C35.9903 72.4833 35.9884 72.484 35.9881 72.4861C35.9469 72.6052 35.2982 74.3066 34.3095 75.3285C33.2921 76.3891 32.9888 78.2809 32.9863 78.2807C32.9872 78.2813 35.058 77.2163 35.5705 76.2398C36.1996 75.0667 36.0036 72.5595 35.9908 72.4813Z" fill="#C49047"/>
<path d="M35.2516 73.4052C34.5401 74.064 33.8711 74.5721 33.1492 75.3809C32.7291 75.8528 32.4962 77.2241 32.7417 77.8594C32.792 78.1372 32.9861 78.2808 32.9861 78.2808C32.9884 78.281 33.2918 76.389 34.3092 75.3286C35.2977 74.3067 35.9466 72.6054 35.9877 72.4862C35.9475 72.5483 35.6223 73.0611 35.2516 73.4052Z" fill="#FFDEAE"/>
<path d="M19.7178 68.0765V62.2167H24.1023V53.4572H19.7178V47.8346H20.8325C21.4525 47.8346 22.0529 47.7977 22.6168 47.725C23.1107 47.6615 23.5139 47.5564 23.8156 47.4126C24.1073 47.2724 24.3217 47.1005 24.45 46.9034C24.5856 46.6946 24.6669 46.4043 24.6912 46.0404L24.7606 45H31.54V62.2167H35.8267V68.0765H19.7178Z" fill="#C49047"/>
<path d="M34.7134 66.9616H20.834V63.3312H25.2185V52.3421H20.834V48.9491C21.5042 48.9491 22.1465 48.9096 22.7609 48.8303C23.3752 48.7514 23.8871 48.614 24.2969 48.4185C24.7807 48.186 25.1438 47.8833 25.3859 47.5109C25.6279 47.1386 25.7675 46.673 25.8049 46.1145H30.4267V63.3312H34.7134V66.9616Z" fill="#FFDEAE"/>
<path d="M32.0183 78.8171C32.0183 79.8733 30.0205 80.7296 27.556 80.7296C25.0916 80.7296 23.0938 79.8733 23.0938 78.8171C23.0938 77.7608 25.0916 76.9045 27.556 76.9045C30.0205 76.9046 32.0183 77.7608 32.0183 78.8171Z" fill="#C49047"/>
<path d="M27.5565 80.395C25.1239 80.395 23.4287 79.5633 23.4287 78.8168C23.4287 78.0705 25.1239 77.2388 27.5565 77.2388C29.9892 77.2388 31.6845 78.0705 31.6845 78.8168C31.6845 79.5633 29.9892 80.395 27.5565 80.395Z" fill="#FFDEAE"/>
</svg>
